<?xml version="1.0" standalone="no"?>
<!DOCTYPE svg PUBLIC "-//W3C//DTD SVG 20010904//EN"
 "http://www.w3.org/TR/2001/REC-SVG-20010904/DTD/svg10.dtd">
<svg version="1.0" xmlns="http://www.w3.org/2000/svg"
 width="70.000000pt" height="70.000000pt" viewBox="0 0 70.000000 70.000000"
 preserveAspectRatio="xMidYMid meet">

<g transform="translate(0.000000,70.000000) scale(0.100000,-0.100000)"
fill="#000000" stroke="none">
<path d="M321 649 c-63 -19 -151 -93 -151 -129 0 -19 39 -4 61 24 28 35 113
76 159 76 88 0 170 -52 212 -133 29 -59 23 -159 -15 -216 -40 -60 -97 -94
-167 -99 -75 -5 -123 11 -176 60 -28 26 -50 38 -64 36 -20 -3 -19 -6 16 -47
123 -143 359 -115 438 54 19 38 26 70 26 111 0 87 -18 132 -76 191 -72 73
-168 99 -263 72z"/>
<path d="M12 468 c3 -22 7 -23 121 -26 141 -3 160 -22 22 -22 -95 0 -95 0 -95
-25 0 -25 0 -25 95 -25 57 0 95 -4 95 -10 0 -6 -28 -10 -65 -10 -63 0 -65 -1
-65 -25 l0 -25 173 0 c161 0 173 1 185 20 7 12 23 20 38 20 17 0 28 -7 31 -20
7 -28 21 -25 29 7 6 22 2 31 -20 47 -15 12 -47 38 -71 59 -24 21 -58 42 -77
47 -18 6 -115 10 -216 10 l-183 0 3 -22z m451 -25 c9 -9 17 -27 17 -40 0 -21
-4 -23 -50 -23 -32 0 -50 4 -50 12 0 9 -3 9 -12 0 -7 -7 -29 -12 -50 -12 -38
0 -38 0 -38 39 l0 40 83 0 c60 -1 87 -5 100 -16z"/>
<path d="M487 317 c-8 -21 8 -39 29 -35 27 5 25 42 -2 46 -12 2 -24 -3 -27
-11z"/>
<path d="M171 74 c0 -11 3 -14 6 -6 3 7 2 16 -1 19 -3 4 -6 -2 -5 -13z"/>
<path d="M485 79 c-4 -6 -5 -12 -2 -15 2 -3 7 2 10 11 7 17 1 20 -8 4z"/>
<path d="M240 71 c0 -6 4 -13 10 -16 6 -3 7 1 4 9 -7 18 -14 21 -14 7z"/>
<path d="M291 64 c0 -11 3 -14 6 -6 3 7 2 16 -1 19 -3 4 -6 -2 -5 -13z"/>
<path d="M445 70 c-3 -5 -1 -10 4 -10 6 0 11 5 11 10 0 6 -2 10 -4 10 -3 0 -8
-4 -11 -10z"/>
</g>
</svg>
