<?xml version="1.0" standalone="no"?>
<!DOCTYPE svg PUBLIC "-//W3C//DTD SVG 20010904//EN"
 "http://www.w3.org/TR/2001/REC-SVG-20010904/DTD/svg10.dtd">
<svg version="1.0" xmlns="http://www.w3.org/2000/svg"
 width="499.000000pt" height="300.000000pt" viewBox="0 0 499.000000 300.000000"
 preserveAspectRatio="xMidYMid meet">

<g transform="translate(0.000000,300.000000) scale(0.100000,-0.100000)"
fill="#000000" stroke="none">
<path d="M1880 2070 l0 -880 1405 0 1405 0 0 880 0 880 -1405 0 -1405 0 0
-880z"/>
<path d="M1800 884 l0 -237 -34 43 c-45 58 -102 101 -178 136 -58 27 -72 29
-178 29 -111 0 -117 -1 -191 -36 -136 -65 -225 -186 -251 -341 -24 -138 32
-301 135 -394 90 -81 101 -84 309 -84 l183 0 50 29 c148 85 237 278 207 452
-7 38 -21 88 -32 109 -11 22 -20 42 -20 45 0 3 49 5 110 5 l110 0 14 -35 c18
-43 69 -75 119 -75 l37 0 0 175 0 175 40 0 40 0 0 -175 0 -175 170 0 170 0 0
175 0 175 40 0 40 0 0 -176 0 -176 65 4 c54 3 69 8 94 32 16 16 32 39 35 52
l6 24 176 0 176 0 -6 -22 c-39 -141 -30 -255 31 -370 86 -165 281 -261 463
-230 141 24 260 109 324 231 60 114 69 228 30 369 l-6 22 231 0 231 0 0 240 0
240 -1370 0 -1370 0 0 -236z m1949 -257 c114 -76 101 -246 -24 -307 -88 -43
-191 -6 -235 85 -78 160 109 321 259 222z m-2250 -50 c114 -76 101 -246 -24
-307 -88 -43 -191 -6 -235 85 -78 160 109 321 259 222z"/>
<path d="M323 803 l-33 -4 0 -60 0 -59 215 0 215 0 0 65 0 65 -182 -2 c-101 0
-198 -3 -215 -5z"/>
</g>
</svg>
